<?xml version="1.0" encoding="UTF-8" standalone="no"?>
<!DOCTYPE svg PUBLIC "-//W3C//DTD SVG 1.1//EN"
 "http://www.w3.org/Graphics/SVG/1.1/DTD/svg11.dtd">
<!-- Generated by graphviz version 3.0.0 (20220226.1711)
 -->
<!-- Pages: 1 -->
<svg width="338pt" height="116pt"
 viewBox="0.00 0.00 337.70 116.00" xmlns="http://www.w3.org/2000/svg" xmlns:xlink="http://www.w3.org/1999/xlink">
<g id="graph0" class="graph" transform="scale(1 1) rotate(0) translate(4 112)">
<polygon fill="white" stroke="transparent" points="-4,4 -4,-112 333.7,-112 333.7,4 -4,4"/>
<!-- cargo&#45;structure -->
<g id="node1" class="node">
<title>cargo&#45;structure</title>
<ellipse fill="none" stroke="black" cx="163" cy="-90" rx="63.89" ry="18"/>
<text text-anchor="middle" x="163" y="-86.3" font-family="Times,serif" font-size="14.00">cargo&#45;structure</text>
</g>
<!-- clap -->
<g id="node2" class="node">
<title>clap</title>
<ellipse fill="none" stroke="black" cx="27" cy="-18" rx="27" ry="18"/>
<text text-anchor="middle" x="27" y="-14.3" font-family="Times,serif" font-size="14.00">clap</text>
</g>
<!-- cargo&#45;structure&#45;&gt;clap -->
<g id="edge1" class="edge">
<title>cargo&#45;structure&#45;&gt;clap</title>
<path fill="none" stroke="black" d="M133.82,-73.98C111.05,-62.26 79.54,-46.04 56.64,-34.26"/>
<polygon fill="black" stroke="black" points="58.21,-31.13 47.72,-29.66 55.01,-37.35 58.21,-31.13"/>
</g>
<!-- dot&#45;writer -->
<g id="node3" class="node">
<title>dot&#45;writer</title>
<ellipse fill="none" stroke="black" cx="118" cy="-18" rx="46.29" ry="18"/>
<text text-anchor="middle" x="118" y="-14.3" font-family="Times,serif" font-size="14.00">dot&#45;writer</text>
</g>
<!-- cargo&#45;structure&#45;&gt;dot&#45;writer -->
<g id="edge2" class="edge">
<title>cargo&#45;structure&#45;&gt;dot&#45;writer</title>
<path fill="none" stroke="black" d="M152.11,-72.05C146.75,-63.71 140.17,-53.49 134.23,-44.25"/>
<polygon fill="black" stroke="black" points="137.14,-42.31 128.79,-35.79 131.26,-46.09 137.14,-42.31"/>
</g>
<!-- toml -->
<g id="node4" class="node">
<title>toml</title>
<ellipse fill="none" stroke="black" cx="209" cy="-18" rx="27.1" ry="18"/>
<text text-anchor="middle" x="209" y="-14.3" font-family="Times,serif" font-size="14.00">toml</text>
</g>
<!-- cargo&#45;structure&#45;&gt;toml -->
<g id="edge3" class="edge">
<title>cargo&#45;structure&#45;&gt;toml</title>
<path fill="none" stroke="black" d="M174.14,-72.05C179.78,-63.47 186.73,-52.89 192.94,-43.44"/>
<polygon fill="black" stroke="black" points="196.03,-45.11 198.6,-34.83 190.18,-41.26 196.03,-45.11"/>
</g>
<!-- walkdir -->
<g id="node5" class="node">
<title>walkdir</title>
<ellipse fill="none" stroke="black" cx="292" cy="-18" rx="37.89" ry="18"/>
<text text-anchor="middle" x="292" y="-14.3" font-family="Times,serif" font-size="14.00">walkdir</text>
</g>
<!-- cargo&#45;structure&#45;&gt;walkdir -->
<g id="edge4" class="edge">
<title>cargo&#45;structure&#45;&gt;walkdir</title>
<path fill="none" stroke="black" d="M190.99,-73.81C211,-62.95 238,-48.3 259.05,-36.88"/>
<polygon fill="black" stroke="black" points="260.85,-39.89 267.97,-32.04 257.51,-33.74 260.85,-39.89"/>
</g>
</g>
</svg>
